<svg width="177" height="115" viewBox="0 0 177 115" fill="none" xmlns="http://www.w3.org/2000/svg">
<path fill-rule="evenodd" clip-rule="evenodd" d="M124.28 42.9528C125.307 42.7346 126.175 42.3168 126.884 41.6994L128.157 49.3403C126.428 51.528 124.224 52.9064 121.545 53.4757C117.481 54.3392 114.646 53.9611 113.042 52.3416C111.973 51.2619 111.291 50.0299 110.997 48.6454C110.693 47.2163 110.517 45.9469 110.468 44.8371L109.676 21.3409L121.064 18.9215L121.796 40.82C121.809 41.0974 121.838 41.3478 121.886 41.5711C122.142 42.7769 122.94 43.2375 124.28 42.9528ZM108.696 10.1371C108.089 7.27892 108.273 5.06943 109.248 3.50864C110.259 1.8937 112.104 0.801588 114.783 0.232297C118.535 -0.564712 120.762 0.689177 121.464 3.99396C122.061 6.8075 121.85 8.9994 120.83 10.5697C119.855 12.1305 118.005 13.2003 115.281 13.779C111.574 14.5666 109.379 13.3526 108.696 10.1371ZM89.1317 37.8882C88.7237 35.9678 87.5819 35.2069 85.7062 35.6054C83.8752 35.9944 82.5038 37.0093 81.5922 38.6499L82.3809 60.8163L70.9928 63.2358L69.8411 29.8044L80.4253 27.5557L80.5282 31.6646C82.4704 27.8447 85.4512 25.5077 89.4706 24.6538C93.4899 23.7999 96.3112 24.2273 97.9345 25.9361C98.9594 27.0253 99.6426 28.3738 99.9841 29.9815C100.326 31.5892 100.532 33.109 100.603 34.5409L100.986 45.2415C100.998 45.5189 101.028 45.7693 101.075 45.9926C101.332 47.1984 102.13 47.659 103.469 47.3743C104.497 47.1561 105.365 46.7383 106.074 46.1209C105.385 46.9916 104.824 48.9445 104.228 51.0162C103.327 54.1496 102.347 57.5545 100.734 57.8972C94.6605 59.1876 91.0828 57.2872 90.0012 52.1961C89.8114 51.3029 89.6967 50.3238 89.6571 49.2586L89.372 40.0075C89.3352 39.1752 89.2551 38.4688 89.1317 37.8882ZM44.1604 69.9165C50.636 68.5407 55.3247 66.0042 58.2266 62.3072C61.1636 58.5559 62.5262 53.4356 62.3143 46.9461L61.1794 14.9114L48.7522 21.6296L50.1994 49.2399C50.3277 52.4799 49.8453 54.8228 48.7522 56.2686C47.6591 57.7144 45.9961 58.6745 43.7631 59.1489C40.0117 59.9459 37.8039 58.7813 37.1398 55.6552C36.8836 54.4494 36.7262 53.2693 36.6676 52.1148L35.2506 26.3395L23.5316 22.9099L24.6666 54.9446C24.7173 56.9409 24.9134 58.7429 25.255 60.3506C26.0236 63.968 27.5192 66.6141 29.7421 68.2889C32.8787 70.7497 37.6848 71.2923 44.1604 69.9165Z" fill="#F7E102"/>
<path fill-rule="evenodd" clip-rule="evenodd" d="M143.555 68.294C142.705 68.5041 142.176 68.1846 141.966 67.3354C141.917 67.1394 141.885 66.9394 141.869 66.7353L139.825 36.41L131.448 38.4828L132.488 53.4068C131.062 52.8239 129.32 52.787 127.262 53.2961C123.93 54.1204 121.536 55.6487 120.078 57.8812C118.644 60.0728 118.03 62.7031 118.235 65.772L118.624 71.7586C118.695 72.7462 118.828 73.632 119.021 74.4158C120.161 79.0211 123.409 80.6612 128.765 79.3359C131.934 78.552 134.011 76.6516 134.998 73.6346C136.036 76.1506 138.352 76.9641 141.944 76.0752C143.904 75.5904 145.51 74.5171 146.763 72.8554L145.638 67.2586C145.131 67.7307 144.436 68.0758 143.555 68.294ZM127.087 69.8207C126.958 69.2981 126.889 68.8818 126.882 68.5717L126.61 64.7397C126.436 62.2176 127.607 60.6455 130.122 60.0233C131.461 59.692 132.411 59.8901 132.973 60.6178L133.539 69.2122C132.916 70.3368 132.017 71.0446 130.841 71.3355C129.698 71.6183 128.821 71.5754 128.21 71.2067C127.591 70.8053 127.216 70.3433 127.087 69.8207ZM173.792 60.8128C172.943 61.0229 172.413 60.7034 172.203 59.8542C172.155 59.6582 172.122 59.4582 172.107 59.2542L171.032 43.1427L163.585 44.9852L163.704 46.5156C162.278 45.3778 160.047 45.1846 157.009 45.9362C154.005 46.6796 151.773 48.1676 150.315 50.4C148.882 52.5917 148.267 55.2219 148.472 58.2908L148.861 64.2775C148.932 65.265 149.065 66.1508 149.259 66.9347C150.398 71.54 153.646 73.18 159.003 71.8547C162.171 71.0708 164.248 69.1704 165.235 66.1534C166.273 68.6694 168.589 69.4829 172.182 68.594C174.141 68.1092 175.748 67.0359 177 65.3742L175.875 59.7775C175.368 60.2495 174.674 60.5947 173.792 60.8128ZM157.324 62.3395C157.195 61.817 157.127 61.4006 157.119 61.0905L156.847 57.2585C156.674 54.7365 157.845 53.1643 160.36 52.5421C161.699 52.2108 162.649 52.409 163.21 53.1366L163.777 61.731C163.154 62.8556 162.255 63.5634 161.079 63.8543C159.936 64.1371 159.058 64.0942 158.447 63.7255C157.828 63.3241 157.454 62.8621 157.324 62.3395ZM103.629 68.8658C103.281 67.4613 102.422 66.9288 101.05 67.2682C99.7108 67.5995 98.7256 68.3805 98.0942 69.6112L99.2174 85.9186L90.8886 87.9793L89.2226 63.3836L96.9634 61.4684L97.1397 64.4923C98.4768 61.6312 100.615 59.837 103.555 59.1097C106.494 58.3824 108.583 58.6283 109.82 59.8472C110.602 60.6243 111.138 61.6008 111.429 62.7767C111.72 63.9525 111.909 65.0668 111.996 66.1198L112.54 73.9919C112.556 74.1959 112.584 74.3796 112.624 74.5429C112.842 75.4248 113.441 75.7445 114.421 75.5021C115.172 75.3162 115.802 74.9872 116.309 74.5152L117.433 80.1119C116.214 81.7655 114.624 82.8348 112.664 83.3196C108.222 84.4186 105.54 83.1064 104.619 79.383C104.458 78.7298 104.349 78.0114 104.294 77.2278L103.858 70.4209C103.81 69.8088 103.734 69.2904 103.629 68.8658ZM62.6726 88.2014C63.8363 92.9047 67.8149 94.4159 74.6085 92.7351C82.0554 90.8927 85.5622 86.7842 85.1289 80.4098L76.9719 82.324C77.0355 83.0015 76.8503 83.6539 76.4163 84.2812C75.9822 84.9085 75.3733 85.3191 74.5894 85.513C72.4664 86.0383 71.1826 85.4027 70.7382 83.6063C70.6574 83.2797 70.6012 82.9123 70.5695 82.5042L70.4867 81.3289L85.4294 77.6319L85.1567 74.008C85.0772 73.1264 84.9486 72.3264 84.7708 71.6078C83.5425 66.6433 79.6459 64.9731 73.0809 66.5974C69.2268 67.5509 66.3341 69.1678 64.4026 71.4481C62.4958 73.6876 61.6526 76.4438 61.8731 79.7167L62.3473 86.0463C62.4026 86.8298 62.511 87.5482 62.6726 88.2014ZM76.6714 75.0155C76.7845 75.4728 76.8445 75.9952 76.8512 76.5828L70.2372 78.2192C70.2241 76.9053 70.5164 75.8451 71.114 75.0387C71.7444 74.2242 72.5168 73.7038 73.4314 73.4775C74.3785 73.2432 75.125 73.3185 75.6709 73.7033C76.2167 74.0882 76.5502 74.5256 76.6714 75.0155ZM59.0218 96.6955C59.3295 101.021 58.4922 104.712 56.5099 107.767C54.5603 110.815 51.9361 112.746 48.6372 113.562C45.3384 114.379 42.8046 114.364 41.0358 113.519C39.2997 112.667 38.1893 111.26 37.7044 109.3C36.9933 106.426 38.2041 103.475 41.337 100.447C38.3425 100.252 36.4332 98.4888 35.609 95.1573C35.4069 94.3408 35.2664 93.4224 35.1872 92.4021L34.7489 86.4276C34.5442 83.3587 35.1749 80.7244 36.641 78.5247C38.099 76.2922 40.3304 74.8043 43.3353 74.0609C46.3728 73.3093 48.6287 73.5311 50.1028 74.7261L50.0089 73.0856L57.3088 71.2795L59.0218 96.6955ZM43.4453 89.2152C43.4527 89.5253 43.521 89.9416 43.6503 90.4642C43.7796 90.9868 44.1539 91.4488 44.7731 91.8502C45.3842 92.2189 46.2614 92.2618 47.4045 91.979C48.5804 91.6881 49.4797 90.9803 50.1027 89.8557L49.536 81.2613C48.8768 80.5579 47.9102 80.3638 46.6364 80.6789C45.3626 80.9941 44.4472 81.5671 43.8903 82.3982C43.3334 83.2292 43.0943 84.2242 43.1731 85.3832L43.4453 89.2152ZM48.0307 106.278C50.1537 105.752 51.0651 103.482 50.7647 99.4663L50.5516 96.5035C46.5369 99.7497 44.7962 102.451 45.3296 104.606C45.4912 105.26 45.8001 105.738 46.2564 106.041C46.7534 106.368 47.3448 106.447 48.0307 106.278ZM21.5704 96.9668L23.1795 104.731L32.4881 102.428L23.5647 67.2022L7.39715 71.2022C8.90515 88.4756 8.65716 96.1894 0 108.027L12.8911 107.277L13.3886 98.9911L21.5704 96.9668ZM13.7731 91.9291L14.5646 78.5274L17.6512 77.7638L20.1911 90.3412L13.7731 91.9291Z" fill="#0670C8"/>
</svg>
